<svg width="14" height="20" viewBox="0 0 14 20" fill="none" xmlns="http://www.w3.org/2000/svg">
<path d="M10.1625 7.48417H6.33917V0H10.1625C12.2258 0 13.9042 1.67833 13.9042 3.74167C13.9042 5.805 12.2258 7.48417 10.1625 7.48417ZM7.565 6.25833H10.1625C11.55 6.25833 12.6783 5.12917 12.6783 3.7425C12.6783 2.35583 11.5492 1.22667 10.1625 1.22667H7.565V6.25833ZM7.565 7.48417H3.7425C1.67917 7.48417 0.000833273 5.80583 0.000833273 3.7425C0.000833273 1.67917 1.67917 0 3.7425 0H7.56583V7.48417H7.565ZM3.7425 1.22583C2.355 1.22583 1.22667 2.355 1.22667 3.74167C1.22667 5.12833 2.355 6.25833 3.7425 6.25833H6.34V1.22583H3.7425ZM7.565 13.7417H3.7425C1.67917 13.7417 0.000833273 12.0633 0.000833273 10C0.000833273 7.93667 1.67917 6.25833 3.7425 6.25833H7.56583V13.7417H7.565ZM3.7425 7.48417C2.355 7.48417 1.22667 8.61333 1.22667 10C1.22667 11.3867 2.35583 12.5158 3.7425 12.5158H6.34V7.48417H3.7425ZM3.7625 20C1.68833 20 0 18.3217 0 16.2583C0 14.195 1.67833 12.5167 3.74167 12.5167H7.565V16.2175C7.565 18.3033 5.85917 20 3.7625 20ZM3.7425 13.7417C3.07553 13.7425 2.43613 14.0079 1.96451 14.4795C1.49289 14.9511 1.22755 15.5905 1.22667 16.2575C1.22667 17.645 2.36417 18.7733 3.76333 18.7733C5.18417 18.7733 6.34083 17.6267 6.34083 16.2167V13.7417H3.7425ZM10.1625 13.7417H10.0808C8.0175 13.7417 6.33917 12.0633 6.33917 10C6.33917 7.93667 8.0175 6.25833 10.0808 6.25833H10.1625C12.2258 6.25833 13.9042 7.93667 13.9042 10C13.9042 12.0633 12.2258 13.7417 10.1625 13.7417ZM10.0817 7.48417C8.69417 7.48417 7.56583 8.61333 7.56583 10C7.56583 11.3867 8.695 12.5158 10.0817 12.5158H10.1633C11.5508 12.5158 12.6792 11.3867 12.6792 10C12.6792 8.61333 11.5492 7.48417 10.1625 7.48417H10.0817Z" fill="black"/>
</svg>
