<svg width="9" height="20" viewBox="0 0 9 20" fill="none" xmlns="http://www.w3.org/2000/svg">
<path d="M8.81964 7.9625C7.7663 3.3125 5.2763 1.78417 5.0088 1.2C4.77547 0.871667 4.56714 0.405 4.3963 0C4.3663 0.4125 4.35047 0.570833 3.96047 0.986667C3.35797 1.45833 0.262137 4.055 0.0104708 9.33667C-0.224529 14.2633 3.5688 17.1992 4.0838 17.5733L4.14214 17.615C4.24938 18.4081 4.34106 19.2033 4.41714 20H4.81797C4.91297 19.14 5.05464 18.2867 5.24297 17.4417C5.59047 17.195 5.7463 17.0558 5.9513 16.8642C6.9221 15.9661 7.69362 14.8743 8.21599 13.6593C8.73835 12.4443 8.99993 11.1332 8.9838 9.81083C8.99214 9.1325 8.89797 8.42583 8.81964 7.9625ZM4.37297 14.7917C4.37297 14.7917 4.37297 7.8825 4.60214 7.88333C4.77964 7.88333 5.01047 16.7958 5.01047 16.7958C4.69297 16.7583 4.37297 15.3292 4.37297 14.7917Z" fill="black"/>
</svg>
