<svg width="18" height="20" viewBox="0 0 18 20" fill="none" xmlns="http://www.w3.org/2000/svg">
<path d="M8.86667 20.0002C8.59917 20.0002 8.3325 19.9302 8.09833 19.7944L5.65167 18.3469C5.28667 18.1427 5.465 18.0702 5.585 18.0277C6.0725 17.8585 6.17083 17.8194 6.69167 17.5244C6.74583 17.4935 6.8175 17.5052 6.87333 17.5385L8.75333 18.6544C8.82167 18.6919 8.9175 18.6919 8.98 18.6544L16.3092 14.4244C16.3775 14.3852 16.4208 14.3069 16.4208 14.226V5.76771C16.4208 5.68521 16.3767 5.60771 16.3067 5.56604L8.98083 1.33937C8.91333 1.30021 8.82333 1.30021 8.755 1.33937L1.43083 5.56687C1.36 5.60771 1.315 5.68771 1.315 5.76771V14.226C1.315 14.3069 1.36 14.3835 1.43083 14.4219L3.43833 15.5819C4.5275 16.1269 5.195 15.4852 5.195 14.8402V6.48938C5.195 6.37104 5.29 6.27854 5.40833 6.27854H6.3375C6.45333 6.27854 6.55 6.37187 6.55 6.48938V14.8402C6.55 16.2944 5.75833 17.1277 4.38 17.1277C3.95667 17.1277 3.6225 17.1277 2.69167 16.6685L0.768333 15.5627C0.293333 15.2885 0 14.7752 0 14.226V5.76771C0 5.21854 0.294167 4.70521 0.768333 4.43187L8.0975 0.196875C8.56167 -0.065625 9.1775 -0.065625 9.6375 0.196875L16.9658 4.43187C17.4408 4.70604 17.7358 5.21854 17.7358 5.76771V14.226C17.7358 14.7752 17.4408 15.2869 16.9658 15.5627L9.6375 19.7944C9.40417 19.9302 9.13833 20.0002 8.86667 20.0002ZM14.7842 11.661C14.7842 10.0777 13.7142 9.65604 11.4617 9.35854C9.18583 9.05771 8.95417 8.90187 8.95417 8.36938C8.95417 7.92937 9.15 7.34188 10.8358 7.34188C12.3417 7.34188 12.8967 7.66604 13.125 8.68104C13.145 8.77687 13.2325 8.84688 13.3308 8.84688H14.2817C14.3408 8.84688 14.3967 8.82104 14.4367 8.77937C14.4767 8.73438 14.4983 8.67687 14.4925 8.61604C14.345 6.86771 13.1833 6.05271 10.8358 6.05271C8.74583 6.05271 7.49917 6.93437 7.49917 8.41354C7.49917 10.0177 8.73917 10.461 10.745 10.6594C13.145 10.8944 13.3308 11.2452 13.3308 11.7169C13.3308 12.536 12.6733 12.8852 11.1292 12.8852C9.19 12.8852 8.76333 12.3985 8.62 11.4335C8.60333 11.3302 8.515 11.2544 8.40917 11.2544H7.46167C7.34417 11.2544 7.25 11.3477 7.25 11.4652C7.25 12.7002 7.92167 14.1719 11.1292 14.1719C13.4525 14.1727 14.7842 13.2585 14.7842 11.661Z" fill="black"/>
</svg>
