<svg width="23" height="20" viewBox="0 0 23 20" fill="none" xmlns="http://www.w3.org/2000/svg">
<path d="M13.6371 10.0023C13.6371 10.5571 13.4115 11.0891 13.0098 11.4814C12.6081 11.8737 12.0634 12.0943 11.4952 12.0945C10.9269 12.0945 10.3819 11.8741 9.98 11.4817C9.57814 11.0894 9.35238 10.5572 9.35238 10.0023C9.35238 9.44762 9.57801 8.91562 9.97966 8.52329C10.3813 8.13096 10.9261 7.91042 11.4943 7.91017C12.0626 7.91017 12.6076 8.1306 13.0095 8.52296C13.4113 8.91531 13.6371 9.44746 13.6371 10.0023ZM16.1747 0C14.8848 0 13.1972 0.898246 11.4904 2.45333C9.78458 0.906667 8.096 0.0187134 6.80704 0.0187134C6.41412 0.0187134 6.05667 0.105731 5.74713 0.27883C4.42942 1.02082 4.13425 3.33287 4.81467 6.23439C1.8975 7.11392 0 8.52023 0 10.0023C0 11.4901 1.90708 12.9001 4.83288 13.7731C4.15821 16.6858 4.45913 19.0016 5.77971 19.7427C6.08638 19.9177 6.44096 20 6.83579 20C8.12475 20 9.81333 19.1018 11.5201 17.5448C13.226 19.0924 14.9145 19.9804 16.2035 19.9804C16.5964 19.9804 16.9539 19.8961 17.2634 19.723C18.5802 18.982 18.8763 16.6699 18.1959 13.7675C21.1025 12.8954 23 11.4863 23 10.0023C23 8.51462 21.0929 7.10456 18.1671 6.22971C18.8418 3.31977 18.5409 1.00211 17.2203 0.260117C16.9155 0.0879532 16.5619 0.000935673 16.1747 0ZM16.17 1.01988V1.0255C16.3856 1.0255 16.559 1.06667 16.7047 1.14433C17.343 1.50175 17.6199 2.86129 17.4043 4.61006C17.3525 5.04047 17.2682 5.49427 17.1647 5.95743C16.2447 5.73661 15.2423 5.56725 14.1872 5.45778C13.5547 4.61099 12.8982 3.84187 12.237 3.16819C13.7626 1.78339 15.1953 1.02363 16.1709 1.02082L16.17 1.01988ZM6.80704 1.0386C7.77688 1.0386 9.21629 1.79462 10.7458 3.17193C10.0884 3.84561 9.43287 4.61006 8.80996 5.45684C7.74908 5.56632 6.74571 5.73567 5.82667 5.96023C5.71933 5.50175 5.63979 5.05825 5.58325 4.63158C5.36283 2.88374 5.635 1.52515 6.2675 1.16304C6.44958 1.07883 6.65083 1.04327 6.80704 1.0386ZM11.4856 3.8924C11.9217 4.33029 12.3577 4.82058 12.789 5.35579C12.3673 5.33708 11.936 5.32398 11.5 5.32398C11.0592 5.32398 10.6231 5.33333 10.1967 5.35579C10.6183 4.82058 11.0544 4.33123 11.4856 3.8924ZM11.5 6.34947C12.2092 6.34947 12.9155 6.38129 13.6102 6.43649C13.9993 6.98105 14.3788 7.56211 14.744 8.17684C15.1005 8.77567 15.4244 9.38386 15.7195 9.99766C15.4244 10.6105 15.1005 11.2234 14.7487 11.8222C14.3846 12.4398 14.008 13.0274 13.6179 13.5719C12.9202 13.6309 12.213 13.6636 11.5 13.6636C10.7908 13.6636 10.0845 13.6309 9.38975 13.5766C9.00067 13.032 8.62117 12.4501 8.25604 11.8363C7.89954 11.2374 7.57562 10.6292 7.28046 10.0154C7.57083 9.4007 7.89954 8.7869 8.25125 8.18713C8.61542 7.56959 8.99204 6.98386 9.38208 6.4393C10.0798 6.37942 10.787 6.3476 11.5 6.3476V6.34947ZM8.01646 6.58713C7.78646 6.93988 7.55646 7.30105 7.34179 7.67251C7.12617 8.03743 6.92492 8.40421 6.73325 8.77099C6.47929 8.15719 6.26367 7.54526 6.08542 6.94924C6.69875 6.80889 7.34562 6.68351 8.01646 6.58713ZM14.974 6.58713C15.64 6.68351 16.2821 6.80234 16.8964 6.94924C16.7239 7.54059 16.5083 8.14877 16.2639 8.75789C16.0722 8.39298 15.871 8.02526 15.6505 7.65942C15.4349 7.29263 15.2049 6.9352 14.9749 6.58713H14.974ZM17.9093 7.21871C18.3732 7.35906 18.814 7.51532 19.227 7.68468C20.8869 8.37708 21.9602 9.28281 21.9602 10.0014C21.9554 10.72 20.8821 11.6295 19.2222 12.3172C18.8197 12.4856 18.3789 12.6372 17.9237 12.7785C17.6554 11.8821 17.3046 10.9483 16.8695 9.99018C17.3008 9.0386 17.6458 8.10947 17.9093 7.21684V7.21871ZM5.07246 7.22246C5.33888 8.1207 5.69058 9.05357 6.12663 10.0108C5.69537 10.9623 5.34846 11.8915 5.08588 12.7841C4.62204 12.6437 4.18121 12.4866 3.77296 12.3163C2.11313 11.6267 1.03979 10.72 1.03979 10.0014C1.03979 9.28281 2.11313 8.37146 3.77296 7.68468C4.17546 7.51626 4.61629 7.36468 5.07246 7.22246ZM16.2639 11.2271C16.5178 11.8419 16.7335 12.4547 16.9117 13.0498C16.2984 13.1967 15.6505 13.3212 14.9797 13.4147C15.2097 13.0639 15.4397 12.7018 15.6553 12.3312C15.871 11.9663 16.0713 11.5939 16.2639 11.2271ZM6.73325 11.2458C6.92492 11.6126 7.12617 11.9785 7.34658 12.3453C7.567 12.7102 7.79221 13.0676 8.02221 13.4147C7.35617 13.3193 6.71408 13.1995 6.09979 13.0536C6.27229 12.4641 6.48887 11.854 6.73229 11.2449L6.73325 11.2458ZM17.1733 14.0407C17.2807 14.502 17.365 14.9464 17.4167 15.3722C17.6372 17.12 17.365 18.4786 16.7325 18.8416C16.5916 18.9258 16.4086 18.9614 16.193 18.9614C15.2231 18.9614 13.7837 18.2063 12.2542 16.8281C12.9116 16.1544 13.5671 15.3909 14.19 14.545C15.2509 14.4346 16.2543 14.2653 17.1733 14.0407ZM5.83625 14.0501C6.75625 14.269 7.75867 14.4384 8.81379 14.5478C9.44629 15.3946 10.1027 16.1637 10.764 16.8365C9.23546 18.2241 7.80083 18.9839 6.82525 18.9839C6.61442 18.9792 6.43617 18.9371 6.29529 18.8604C5.65704 18.5048 5.38008 17.1443 5.59571 15.3956C5.64746 14.9651 5.73275 14.5123 5.83625 14.0501ZM10.2062 14.6489C10.6279 14.6676 11.0592 14.6807 11.4952 14.6807C11.936 14.6807 12.3721 14.6713 12.7985 14.6489C12.3769 15.1841 11.9408 15.6735 11.5096 16.1132C11.0735 15.6735 10.6375 15.1841 10.2062 14.6489Z" fill="black"/>
</svg>
